<svg xmlns="http://www.w3.org/2000/svg" viewBox="0 0 960 320" role="img" aria-labelledby="title desc">
  <title id="title">EJECT broken EX etymology logo concept</title>
  <desc id="desc">An X breaks at its upper-right stroke and casts that fragment outward.</desc>
  <rect width="960" height="320" rx="28" fill="#F2F0E8"/>
  <path d="M82 82v156M82 82h76M82 160h62M82 238h76" fill="none" stroke="#111311" stroke-width="18" stroke-linecap="square"/>
  <path d="m180 100 94 138M180 238l58-84" fill="none" stroke="#111311" stroke-width="18" stroke-linecap="square"/>
  <path d="m254 132 42-62" stroke="#D96B43" stroke-width="18" stroke-linecap="square"/>
  <path d="M332 72v176" stroke="#C8C6BE" stroke-width="2"/>
  <g transform="translate(384 100)" fill="none" stroke="#111311" stroke-width="18" stroke-linecap="square" stroke-linejoin="miter">
    <path d="M0 0v120M0 0h70M0 60h58M0 120h70"/>
    <path d="M95 0h75M150 0v84q0 36-30 36-25 0-25-25"/>
    <path d="M205 0v120M205 0h70M205 60h58M205 120h70"/>
    <path d="M355 24Q345 0 315 0h-15q-20 0-20 20v80q0 20 20 20h15q30 0 40-24"/>
    <path d="M390 0h85M432.5 0v120"/>
  </g>
</svg>
